<?xml version="1.0" standalone="no"?>
<!DOCTYPE svg PUBLIC "-//W3C//DTD SVG 20010904//EN"
 "http://www.w3.org/TR/2001/REC-SVG-20010904/DTD/svg10.dtd">
<svg version="1.0" xmlns="http://www.w3.org/2000/svg"
 width="447.000000pt" height="353.000000pt" viewBox="0 0 447.000000 353.000000"
 preserveAspectRatio="xMidYMid meet">

<g transform="translate(0.000000,353.000000) scale(0.100000,-0.100000)"
fill="#000000" stroke="none">
<path d="M2130 2824 c0 -16 17 -37 27 -33 6 2 2 13 -8 23 -11 11 -19 15 -19
10z"/>
<path d="M2290 2792 c0 -10 7 -19 15 -19 8 0 15 2 15 4 0 3 -7 11 -15 19 -13
14 -15 13 -15 -4z"/>
<path d="M1975 2780 c-8 -13 9 -20 24 -11 10 6 9 10 -3 14 -8 3 -18 2 -21 -3z"/>
<path d="M2158 2773 c7 -3 16 -2 19 1 4 3 -2 6 -13 5 -11 0 -14 -3 -6 -6z"/>
<path d="M2433 2762 c0 -22 17 -43 28 -36 5 3 7 10 3 15 -3 5 -10 7 -15 4 -5
-4 -9 -2 -9 4 0 5 5 11 12 13 8 3 7 6 -3 10 -10 4 -16 0 -16 -10z"/>
<path d="M2000 2751 c0 -6 6 -11 13 -11 7 0 4 -7 -7 -15 -19 -15 -19 -15 2
-15 25 0 29 22 7 40 -10 9 -15 9 -15 1z"/>
<path d="M2146 2725 c-12 -9 -15 -15 -7 -15 11 0 11 -3 1 -15 -9 -10 -9 -15
-1 -15 6 0 12 5 12 10 3 20 4 25 12 38 10 15 7 15 -17 -3z"/>
<path d="M2280 2699 c0 -15 18 -19 23 -6 3 8 -1 14 -9 14 -8 0 -14 -4 -14 -8z"/>
<path d="M2569 2698 c-1 -7 0 -17 1 -23 1 -5 3 -16 3 -22 1 -21 10 -5 13 22 1
13 -2 27 -7 30 -5 4 -10 0 -10 -7z"/>
<path d="M2255 2691 c-6 -11 13 -26 22 -17 4 3 1 6 -6 6 -7 0 -9 5 -6 10 3 6
4 10 1 10 -3 0 -7 -4 -11 -9z"/>
<path d="M2399 2685 c0 0 -2 -8 -4 -17 -3 -14 0 -16 15 -8 28 15 33 29 10 27
-11 -1 -20 -1 -21 -2z"/>
<path d="M2000 2672 c0 -5 7 -9 15 -9 8 0 12 4 9 9 -3 4 -9 8 -15 8 -5 0 -9
-4 -9 -8z"/>
<path d="M2495 2611 c-3 -5 -1 -12 5 -16 12 -7 30 2 30 16 0 12 -27 12 -35 0z"/>
<path d="M2680 2586 c0 -8 -3 -23 -7 -33 -6 -17 -6 -17 10 -1 19 18 23 48 7
48 -5 0 -10 -6 -10 -14z"/>
<path d="M2580 2530 c-9 -6 -10 -10 -3 -10 6 0 15 5 18 10 8 12 4 12 -15 0z"/>
<path d="M2612 2528 c-16 -16 -15 -33 1 -19 8 6 16 9 19 6 2 -3 5 2 5 10 0 18
-9 19 -25 3z"/>
<path d="M2761 2486 c-9 -11 -9 -15 1 -19 10 -4 10 -6 1 -6 -7 -1 -13 -9 -12
-18 0 -11 3 -13 6 -5 2 6 9 10 14 6 5 -3 9 9 9 25 0 35 -3 37 -19 17z"/>
<path d="M1830 2460 c8 -5 20 -10 25 -10 6 0 3 5 -5 10 -8 5 -19 10 -25 10 -5
0 -3 -5 5 -10z"/>
<path d="M1888 2443 c7 -3 16 -2 19 1 4 3 -2 6 -13 5 -11 0 -14 -3 -6 -6z"/>
<path d="M2063 2443 c9 -2 25 -2 35 0 9 3 1 5 -18 5 -19 0 -27 -2 -17 -5z"/>
<path d="M1963 2433 c15 -2 37 -2 50 0 12 2 0 4 -28 4 -27 0 -38 -2 -22 -4z"/>
<path d="M2655 2430 c-7 -11 10 -26 32 -27 12 -1 24 5 27 12 3 9 0 12 -10 8
-7 -3 -14 -1 -14 4 0 11 -29 13 -35 3z"/>
<path d="M1616 2382 c-3 -5 1 -9 9 -9 8 0 12 4 9 9 -3 4 -7 8 -9 8 -2 0 -6 -4
-9 -8z"/>
<path d="M2830 2355 c-7 -8 -9 -15 -6 -15 4 0 2 -9 -4 -21 -10 -18 -10 -19 8
-10 22 12 37 41 21 41 -6 0 -7 5 -4 10 9 15 -1 12 -15 -5z"/>
<path d="M1675 2310 c10 -11 20 -20 23 -20 3 0 -3 9 -13 20 -10 11 -20 20 -23
20 -3 0 3 -9 13 -20z"/>
<path d="M2714 2308 c-4 -7 -2 -8 4 -4 7 4 12 3 12 -3 0 -6 7 -7 17 -4 10 4
14 2 10 -4 -5 -7 0 -9 14 -6 14 4 17 9 10 16 -14 14 -59 18 -67 5z"/>
<path d="M2160 2306 c0 -2 7 -7 16 -10 8 -3 12 -2 9 4 -6 10 -25 14 -25 6z"/>
<path d="M1970 2292 c0 -4 18 -6 41 -4 31 3 48 -1 71 -18 17 -13 28 -18 24
-12 -3 6 0 12 6 15 19 6 -61 27 -104 27 -21 0 -38 -3 -38 -8z"/>
<path d="M1573 2265 c-3 -9 -3 -18 -1 -21 3 -3 8 4 11 16 6 23 -1 27 -10 5z"/>
<path d="M2310 2196 c14 -7 29 -10 34 -8 11 6 -20 20 -44 21 -8 0 -4 -5 10
-13z"/>
<path d="M2863 2193 c4 -6 0 -13 -8 -17 -8 -3 -15 -10 -15 -15 0 -14 27 -2 34
14 3 8 0 17 -6 21 -6 4 -8 3 -5 -3z"/>
<path d="M2760 2169 c0 -6 7 -8 16 -5 13 5 14 3 6 -7 -8 -10 -6 -13 9 -14 16
-2 17 1 9 18 -11 20 -40 26 -40 8z"/>
<path d="M2173 2162 c-28 -4 -28 -3 2 -48 33 -48 32 -54 -9 -54 -28 0 -40 7
-65 39 -31 39 -31 40 -9 44 14 3 7 5 -16 6 -37 1 -38 0 -20 -13 10 -8 19 -18
19 -23 0 -23 51 -68 75 -66 14 0 37 1 52 2 l27 1 -24 36 c-31 45 -31 62 -2 66
15 2 17 5 7 9 -8 2 -25 3 -37 1z"/>
<path d="M2240 2154 c0 -8 4 -14 9 -14 5 0 18 -15 29 -34 19 -32 19 -35 4 -39
-9 -3 -2 -5 17 -6 32 -1 33 0 16 12 -10 8 -16 18 -14 23 3 5 -10 23 -28 41
-20 19 -33 26 -33 17z"/>
<path d="M1933 2143 c9 -2 23 -2 30 0 6 3 -1 5 -18 5 -16 0 -22 -2 -12 -5z"/>
<path d="M2360 2125 c7 -18 6 -25 -3 -25 -6 0 -4 -5 6 -11 9 -6 15 -14 12 -20
-4 -5 10 -8 32 -8 28 2 31 3 12 6 -26 4 -49 37 -49 68 0 8 -4 15 -10 15 -6 0
-6 -9 0 -25z"/>
<path d="M1997 2105 c3 -22 9 -42 14 -45 4 -3 12 -17 18 -32 6 -17 20 -28 39
-33 16 -3 44 -21 62 -40 19 -19 38 -35 42 -35 5 0 -14 20 -42 45 -28 25 -57
45 -65 45 -9 0 -25 20 -37 46 -19 39 -20 46 -8 54 13 8 13 10 -2 10 -9 0 -19
6 -22 13 -3 6 -3 -6 1 -28z"/>
<path d="M1519 2085 c-1 -3 -2 -8 -3 -12 -1 -5 -8 -19 -15 -33 -13 -25 -13
-25 6 -5 11 11 20 28 20 38 0 16 -5 24 -8 12z"/>
<path d="M1575 2081 c-3 -5 -2 -12 3 -15 5 -3 9 1 9 9 0 17 -3 19 -12 6z"/>
<path d="M1603 2073 c1 -12 4 -20 8 -17 4 2 9 -1 11 -8 3 -9 6 -9 12 0 4 7 2
12 -4 12 -6 0 -8 5 -4 12 4 6 3 8 -4 4 -5 -3 -12 0 -15 6 -3 7 -4 3 -4 -9z"/>
<path d="M2822 2065 c0 -16 2 -22 5 -12 2 9 2 23 0 30 -3 6 -5 -1 -5 -18z"/>
<path d="M2140 2016 c0 -2 8 -10 18 -17 15 -13 16 -12 3 4 -13 16 -21 21 -21
13z"/>
<path d="M2230 1993 c8 -4 21 -13 28 -22 11 -14 11 -14 6 1 -4 12 1 18 18 21
13 2 3 5 -22 5 -25 0 -38 -2 -30 -5z"/>
<path d="M2796 1944 c-4 -14 -5 -28 -3 -31 3 -2 8 8 11 23 4 14 5 28 3 31 -3
2 -8 -8 -11 -23z"/>
<path d="M2217 1949 c7 -7 15 -10 18 -7 3 3 -2 9 -12 12 -14 6 -15 5 -6 -5z"/>
<path d="M2270 1935 c0 -8 7 -15 16 -15 14 0 14 3 4 15 -7 8 -14 15 -16 15 -2
0 -4 -7 -4 -15z"/>
<path d="M2650 1946 c0 -2 8 -10 18 -17 15 -13 16 -12 3 4 -13 16 -21 21 -21
13z"/>
<path d="M1594 1928 c-4 -7 -3 -8 4 -4 7 4 12 3 12 -2 0 -16 38 -21 44 -5 3 8
1 11 -4 8 -6 -3 -10 0 -10 7 0 9 -3 9 -10 -2 -6 -10 -10 -11 -10 -2 0 15 -16
16 -26 0z"/>
<path d="M1552 1921 c-8 -4 -14 -12 -15 -17 -1 -5 -5 -8 -9 -6 -5 1 -8 -7 -8
-18 0 -38 16 -24 48 43 4 9 0 9 -16 -2z"/>
<path d="M2040 1927 c0 -2 15 -16 33 -33 l32 -29 -29 33 c-28 30 -36 37 -36
29z"/>
<path d="M2338 1913 c12 -2 32 -2 45 0 12 2 2 4 -23 4 -25 0 -35 -2 -22 -4z"/>
<path d="M2695 1890 c10 -11 20 -20 23 -20 3 0 -3 9 -13 20 -10 11 -20 20 -23
20 -3 0 3 -9 13 -20z"/>
<path d="M2731 1843 c16 -27 25 -29 33 -7 3 9 2 12 -5 9 -5 -4 -17 -1 -26 7
-15 12 -15 11 -2 -9z"/>
<path d="M1665 1822 c-11 -11 -4 -24 9 -19 7 3 18 1 23 -4 6 -6 14 -5 22 5 9
11 9 16 0 22 -8 4 -9 3 -5 -4 4 -7 2 -12 -3 -12 -6 0 -11 4 -11 8 0 9 -27 12
-35 4z"/>
<path d="M2130 1827 c0 -2 15 -16 33 -33 l32 -29 -29 33 c-28 30 -36 37 -36
29z"/>
<path d="M1620 1767 c0 -9 -5 -17 -11 -17 -5 0 -7 5 -3 12 4 7 3 8 -4 4 -17
-10 -15 -26 3 -26 17 0 32 27 21 37 -3 4 -6 -1 -6 -10z"/>
<path d="M2507 1751 c28 -9 69 -30 90 -46 27 -21 33 -23 19 -7 -23 26 -112 72
-140 72 -12 -1 2 -9 31 -19z"/>
<path d="M1747 1713 c-4 -3 -7 -11 -7 -17 0 -6 4 -6 11 1 6 6 18 9 27 6 10 -4
13 -2 8 5 -8 13 -29 16 -39 5z"/>
<path d="M1685 1650 c-11 -5 -14 -9 -7 -9 7 -1 10 -6 6 -12 -4 -7 -1 -10 6 -7
7 2 14 12 16 21 1 9 2 17 1 16 -1 0 -11 -4 -22 -9z"/>
<path d="M1860 1625 c0 -8 2 -15 4 -15 2 0 6 7 10 15 3 8 1 15 -4 15 -6 0 -10
-7 -10 -15z"/>
<path d="M1835 1620 c-3 -5 -1 -10 4 -10 6 0 11 5 11 10 0 6 -2 10 -4 10 -3 0
-8 -4 -11 -10z"/>
<path d="M1795 1581 c3 -5 1 -12 -5 -16 -9 -6 8 -45 20 -45 12 0 5 60 -8 65
-7 2 -10 1 -7 -4z"/>
<path d="M1958 1569 c-10 -6 -18 -14 -18 -19 0 -16 26 -11 47 8 10 9 14 13 7
9 -7 -4 -14 -3 -16 2 -2 6 -9 6 -20 0z"/>
<path d="M2354 1571 c4 -6 1 -11 -6 -11 -9 0 -9 -3 2 -10 8 -5 18 -10 22 -10
12 0 2 34 -12 38 -7 3 -10 0 -6 -7z"/>
<path d="M2092 1540 c-3 -8 -10 -18 -16 -22 -7 -5 -6 -8 2 -8 8 0 16 9 19 19
3 11 11 17 18 15 7 -3 16 -1 19 5 4 5 -3 9 -15 8 -12 -1 -24 -8 -27 -17z"/>
<path d="M2230 1546 c0 -2 7 -6 15 -10 8 -3 15 -1 15 4 0 6 -7 10 -15 10 -8 0
-15 -2 -15 -4z"/>
<path d="M2349 1527 c6 -8 8 -17 4 -20 -3 -4 1 -7 10 -7 20 0 22 11 5 28 -16
16 -33 15 -19 -1z"/>
<path d="M2210 1519 c0 -5 5 -9 11 -9 5 0 7 -6 3 -12 -5 -9 -2 -8 9 1 10 8 15
16 12 19 -10 10 -35 11 -35 1z"/>
<path d="M1923 1495 c-13 -14 -19 -44 -6 -32 3 4 13 1 21 -6 13 -10 14 -9 5 8
-6 11 -8 26 -6 33 6 16 1 15 -14 -3z"/>
<path d="M2354 1478 c-5 -7 -3 -8 5 -4 8 6 11 2 9 -10 -2 -13 4 -19 20 -20
l23 -1 -22 23 c-26 28 -26 28 -35 12z"/>
<path d="M2062 1458 c2 -6 12 -12 22 -14 14 -2 15 0 5 12 -14 17 -32 19 -27 2z"/>
<path d="M2200 1454 c0 -12 11 -26 32 -42 13 -11 18 -11 24 0 4 7 3 10 -1 5
-5 -4 -15 5 -22 20 -7 16 -11 19 -8 8 5 -20 5 -20 -10 -1 -8 11 -15 16 -15 10z"/>
<path d="M1265 1230 c-3 -5 1 -10 10 -10 9 0 13 5 10 10 -3 6 -8 10 -10 10 -2
0 -7 -4 -10 -10z"/>
<path d="M760 1224 c0 -25 53 -190 65 -202 10 -12 16 -2 35 55 31 98 41 123
50 123 5 0 23 -43 40 -96 19 -55 37 -93 43 -91 11 3 45 108 62 188 15 70 -13
12 -35 -74 -13 -48 -27 -84 -31 -80 -4 4 -21 46 -37 92 -16 47 -33 86 -38 88
-5 2 -25 -36 -43 -84 -19 -49 -37 -92 -41 -96 -4 -4 -17 32 -29 80 -19 77 -41
128 -41 97z"/>
<path d="M1320 1222 c0 -7 4 -12 10 -12 15 0 40 -56 40 -92 0 -67 -60 -110
-125 -88 -65 21 -86 104 -39 159 14 17 21 31 16 31 -24 0 -52 -53 -52 -98 0
-38 5 -49 36 -78 39 -37 64 -41 116 -20 42 18 73 78 64 124 -7 29 -66 96 -66
74z"/>
<path d="M1512 1123 l2 -108 3 88 c2 48 7 87 11 87 5 0 26 -36 47 -81 22 -44
45 -85 52 -91 9 -7 24 14 60 84 l48 93 5 -95 c4 -69 7 -88 14 -71 7 21 -1 191
-10 200 -6 7 -10 1 -62 -104 l-50 -100 -48 103 c-26 56 -53 102 -61 102 -10 0
-13 -23 -11 -107z"/>
<path d="M1935 1173 c-37 -80 -66 -153 -60 -153 3 0 11 16 19 35 15 34 16 35
75 35 l60 0 20 -42 c34 -70 12 0 -28 91 -20 47 -42 86 -48 88 -7 3 -24 -22
-38 -54z m60 -5 c9 -24 19 -49 22 -55 4 -10 -9 -13 -47 -13 -38 0 -51 3 -47
13 31 77 40 97 47 97 4 0 16 -19 25 -42z"/>
<path d="M2180 1123 c0 -75 3 -103 10 -93 6 8 9 45 9 83 -1 37 1 70 3 73 3 3
35 -32 70 -78 35 -46 68 -83 73 -83 6 0 11 46 13 103 2 63 -1 102 -7 102 -6 0
-11 -39 -13 -92 l-3 -92 -69 92 c-37 51 -72 92 -77 92 -5 0 -9 -48 -9 -107z"/>
<path d="M2626 1218 c-4 -9 -3 -58 2 -110 7 -72 10 -81 11 -40 l1 52 70 0 70
0 0 -50 c0 -27 5 -50 10 -50 6 0 10 42 10 106 0 67 -4 103 -10 99 -5 -3 -10
-26 -10 -51 l0 -45 -67 3 -68 3 -6 50 c-3 34 -7 45 -13 33z"/>
<path d="M2935 1188 c-3 -24 -5 -72 -3 -108 l3 -65 73 -3 c50 -2 72 1 67 8 -3
5 -33 10 -66 10 l-59 0 0 45 0 44 58 4 57 3 -57 2 -58 2 0 45 0 44 68 4 67 3
-72 2 -72 2 -6 -42z"/>
<path d="M3200 1121 l0 -111 70 0 c40 0 70 4 70 10 0 6 -27 10 -60 10 l-60 0
0 94 c0 53 -4 98 -10 101 -6 4 -10 -33 -10 -104z"/>
<path d="M3462 1118 c0 -75 3 -98 7 -68 l6 45 58 5 c62 6 87 24 87 63 0 24
-18 57 -31 57 -5 0 -2 -11 6 -24 12 -18 13 -30 6 -49 -11 -29 -40 -40 -92 -35
-33 3 -34 4 -37 52 -2 32 1 52 10 57 10 7 9 9 -4 9 -16 0 -18 -11 -16 -112z"/>
<path d="M3528 1223 c7 -3 16 -2 19 1 4 3 -2 6 -13 5 -11 0 -14 -3 -6 -6z"/>
</g>
</svg>
